<svg width="390" height="391" viewBox="0 0 390 391" fill="none" xmlns="http://www.w3.org/2000/svg">
<path d="M215.513 339.029C215.264 339.029 215.015 338.963 214.791 338.833L93.9304 267.736C93.5876 267.536 93.3464 267.201 93.2627 266.812C93.1789 266.424 93.2601 266.02 93.4887 265.695L190.833 127.362C191.285 126.72 192.171 126.565 192.813 127.017C193.456 127.469 193.61 128.355 193.158 128.997L96.705 266.069L214.218 335.197L218.035 264.574C218.078 263.79 218.738 263.195 219.53 263.231C220.315 263.274 220.914 263.944 220.873 264.726L216.93 337.682C216.902 338.178 216.62 338.624 216.181 338.858C215.973 338.972 215.742 339.028 215.511 339.028L215.513 339.029ZM220.608 244.779C220.583 244.779 220.558 244.779 220.53 244.776C219.745 244.733 219.146 244.063 219.187 243.281L228.043 79.4353L205.433 111.565C204.981 112.207 204.094 112.362 203.452 111.91C202.81 111.458 202.655 110.572 203.107 109.93L228.569 73.7506C228.934 73.2327 229.597 73.0169 230.196 73.2251C230.795 73.4333 231.184 74.0122 231.151 74.6444L222.025 243.436C221.985 244.193 221.358 244.78 220.609 244.78L220.608 244.779Z" fill="#333333"/>
<path d="M329.263 267.931H249.554C248.769 267.931 248.132 267.294 248.132 266.509C248.132 265.725 248.769 265.087 249.554 265.087H327.021L271.659 147.444L113.254 207.528C112.517 207.808 111.697 207.437 111.421 206.703C111.141 205.969 111.512 205.147 112.246 204.87L271.886 144.319C272.579 144.057 273.358 144.369 273.676 145.042L330.551 265.903C330.759 266.343 330.726 266.861 330.464 267.272C330.205 267.683 329.753 267.932 329.266 267.932L329.263 267.931ZM228.227 267.931H94.652C94.1772 267.931 93.7329 267.692 93.4689 267.299L65.0314 224.642C64.7901 224.282 64.7292 223.833 64.8612 223.419C64.9933 223.007 65.3056 222.677 65.7118 222.522L92.3059 212.434C93.0422 212.155 93.8623 212.526 94.1391 213.26C94.4184 213.993 94.0477 214.816 93.3139 215.093L68.3877 224.546L95.4134 265.087H228.228C229.012 265.087 229.65 265.724 229.65 266.509C229.647 267.293 229.01 267.931 228.225 267.931L228.227 267.931Z" fill="#333333"/>
<path d="M66.2162 225.278C65.8811 225.278 65.5485 225.159 65.2844 224.93C64.8883 224.59 64.7131 224.057 64.8273 223.546L93.2648 95.5742C93.3486 95.1934 93.5873 94.8633 93.9225 94.6627C94.2576 94.4622 94.6613 94.4088 95.0345 94.5129L159.502 112.563C160.258 112.774 160.7 113.559 160.487 114.315C160.276 115.072 159.489 115.514 158.735 115.301L95.7127 97.6543L68.1715 221.583L142.558 193.369C143.291 193.09 144.114 193.461 144.391 194.195C144.67 194.928 144.299 195.751 143.566 196.028L66.7225 225.182C66.5575 225.243 66.3874 225.273 66.2173 225.273L66.2162 225.278ZM163.008 188.566C162.434 188.566 161.893 188.215 161.677 187.649C161.398 186.915 161.769 186.093 162.502 185.816L267.841 145.859L179.279 121.06C178.522 120.849 178.08 120.065 178.294 119.308C178.505 118.551 179.289 118.109 180.046 118.323L272.775 144.287C273.366 144.452 273.785 144.978 273.813 145.592C273.841 146.206 273.47 146.768 272.897 146.986L163.515 188.477C163.344 188.535 163.172 188.566 163.007 188.566L163.008 188.566Z" fill="#333333"/>
<path d="M322.152 346.14C313.527 346.14 306.512 339.125 306.512 330.5C306.512 321.875 313.527 314.859 322.152 314.859C330.777 314.859 337.792 321.875 337.792 330.5C337.792 339.125 330.777 346.14 322.152 346.14ZM322.152 317.702C315.096 317.702 309.355 323.443 309.355 330.5C309.355 337.556 315.096 343.297 322.152 343.297C329.208 343.297 334.949 337.556 334.949 330.5C334.949 323.443 329.208 317.702 322.152 317.702Z" fill="#333333"/>
<path d="M151.527 75.9798C142.902 75.9798 135.887 68.9644 135.887 60.3395C135.887 51.7147 142.902 44.6992 151.527 44.6992C160.152 44.6992 167.167 51.7147 167.167 60.3395C167.167 68.9644 160.152 75.9798 151.527 75.9798ZM151.527 47.5423C144.471 47.5423 138.73 53.2831 138.73 60.3395C138.73 67.3959 144.471 73.1367 151.527 73.1367C158.583 73.1367 164.324 67.3959 164.324 60.3395C164.324 53.2831 158.583 47.5423 151.527 47.5423Z" fill="#333333"/>
<path d="M286.605 246.604C286.23 246.604 285.867 246.447 285.595 246.185C285.331 245.921 285.184 245.553 285.184 245.182C285.184 244.804 285.333 244.436 285.595 244.172C286.128 243.646 287.08 243.646 287.606 244.172C287.875 244.441 288.025 244.804 288.025 245.182C288.025 245.553 287.875 245.921 287.606 246.185C287.344 246.447 286.981 246.604 286.605 246.604Z" fill="#333333"/>
<path d="M265.277 246.604C264.902 246.604 264.539 246.447 264.274 246.185C264.005 245.921 263.855 245.553 263.855 245.182C263.855 244.804 264.005 244.436 264.274 244.172C264.792 243.646 265.752 243.646 266.28 244.172C266.549 244.441 266.699 244.804 266.699 245.182C266.699 245.553 266.549 245.921 266.288 246.185C266.016 246.447 265.653 246.604 265.277 246.604H265.277Z" fill="#333333"/>
<path d="M243.953 246.604C243.577 246.604 243.214 246.447 242.943 246.185C242.679 245.921 242.531 245.553 242.531 245.182C242.531 244.804 242.681 244.443 242.943 244.172C243.476 243.646 244.428 243.646 244.954 244.172C245.223 244.441 245.372 244.804 245.372 245.182C245.372 245.553 245.223 245.921 244.961 246.185C244.692 246.447 244.329 246.604 243.953 246.604H243.953Z" fill="#333333"/>
<path d="M243.953 225.278C243.582 225.278 243.214 225.12 242.943 224.859C242.679 224.595 242.531 224.227 242.531 223.856C242.531 223.478 242.681 223.117 242.943 222.845C243.476 222.32 244.428 222.32 244.954 222.845C245.223 223.114 245.372 223.478 245.372 223.856C245.372 224.227 245.223 224.595 244.954 224.859C244.692 225.12 244.324 225.278 243.953 225.278Z" fill="#333333"/>
<path d="M243.953 203.952C243.577 203.952 243.214 203.794 242.95 203.533C242.681 203.269 242.531 202.9 242.531 202.53C242.531 202.151 242.681 201.791 242.943 201.519C243.476 200.994 244.428 200.994 244.954 201.519C245.223 201.788 245.372 202.151 245.372 202.53C245.372 202.9 245.223 203.269 244.961 203.533C244.692 203.794 244.329 203.952 243.953 203.952Z" fill="#333333"/>
<path d="M52 323.389H66.2188V337.607H52V323.389Z" fill="#333333"/>
<path d="M73.3281 323.389H87.5469V337.607H73.3281V323.389Z" fill="#333333"/>
<path d="M94.6523 323.389H108.871V337.607H94.6523V323.389Z" fill="#333333"/>
<path d="M115.98 323.389H130.199V337.607H115.98V323.389Z" fill="#333333"/>
</svg>
