<svg xmlns="http://www.w3.org/2000/svg" width="17" height="17" viewBox="0 0 17 17" fill="none">
<path d="M15.1431 7.67741L12.3306 10.1043L13.1875 13.7337C13.2347 13.9307 13.2226 14.1373 13.1525 14.3274C13.0824 14.5175 12.9575 14.6826 12.7937 14.8018C12.6298 14.9209 12.4343 14.9889 12.2319 14.997C12.0294 15.0051 11.8291 14.9531 11.6562 14.8474L8.49996 12.9049L5.34184 14.8474C5.16898 14.9525 4.9689 15.004 4.7668 14.9956C4.56469 14.9872 4.3696 14.9191 4.20609 14.8001C4.04257 14.681 3.91795 14.5162 3.8479 14.3264C3.77786 14.1367 3.76553 13.9304 3.81246 13.7337L4.67246 10.1043L1.85996 7.67741C1.70702 7.54523 1.59641 7.37092 1.54195 7.17626C1.48749 6.98159 1.49158 6.77519 1.55372 6.58283C1.61586 6.39048 1.73329 6.22069 1.89135 6.09468C2.04941 5.96867 2.2411 5.89201 2.44246 5.87429L6.12996 5.57679L7.55246 2.13429C7.62946 1.94667 7.7605 1.78619 7.92894 1.67325C8.09738 1.56031 8.2956 1.5 8.4984 1.5C8.7012 1.5 8.89942 1.56031 9.06785 1.67325C9.23629 1.78619 9.36734 1.94667 9.44434 2.13429L10.8662 5.57679L14.5537 5.87429C14.7555 5.89135 14.9477 5.96758 15.1064 6.09342C15.265 6.21926 15.383 6.38911 15.4455 6.5817C15.508 6.77429 15.5123 6.98105 15.4579 7.17607C15.4034 7.37109 15.2926 7.54571 15.1393 7.67804L15.1431 7.67741Z" fill="white"/>
</svg>